<svg xmlns="http://www.w3.org/2000/svg"><defs><font id="mediakron" horiz-adv-x="512"><font-face units-per-em="512" ascent="480" descent="-32"/><glyph horiz-adv-x="256"/><glyph unicode="" glyph-name="grid" d="M24 19.733v170.666q0 8.96 6.186 15.147t15.146 6.187h170.667q8.96 0 15.147-6.187t6.186-15.147V19.732q0-8.96-6.186-15.147t-15.147-6.187H45.332q-8.96 0-15.146 6.187T24 19.732zm0 256v170.666q0 8.96 6.186 15.147t15.146 6.187h170.667q8.96 0 15.147-6.187t6.186-15.147V275.733q0-8.96-6.186-15.147t-15.147-6.186H45.332q-8.96 0-15.146 6.186T24 275.733zm256-256v170.666q0 8.96 6.187 15.147t15.147 6.187H472q8.96 0 15.147-6.187t6.187-15.147V19.732q0-8.96-6.187-15.147T472-1.602H301.333q-8.96 0-15.147 6.187t-6.187 15.147zm0 256v170.666q0 8.96 6.187 15.147t15.147 6.187H472q8.96 0 15.147-6.187t6.187-15.147V275.733q0-8.96-6.187-15.147T472 254.4H301.333q-8.96 0-15.147 6.186t-6.187 15.147z"/><glyph unicode="" glyph-name="list" d="M30.531 43.14v75.156q0 7.891 5.449 13.34t13.34 5.449h75.156q7.891 0 13.34-5.449t5.448-13.34V43.14q0-7.891-5.448-13.34t-13.34-5.449H49.32q-7.891 0-13.34 5.449t-5.448 13.34zm0 150.314q0-7.891 5.449-13.34t13.34-5.449h75.156q7.891 0 13.34 5.449t5.448 13.34v75.156q0 7.892-5.448 13.34t-13.34 5.448H49.32q-7.891 0-13.34-5.448t-5.448-13.34v-75.156zm0 150.311v75.157q0 7.891 5.449 13.34t13.34 5.449h75.156q7.891 0 13.34-5.449t5.448-13.34v-75.157q0-7.891-5.448-13.34t-13.34-5.449H49.32q-7.891 0-13.34 5.449t-5.448 13.34zM180.844 43.14v75.156q0 7.891 5.448 13.34t13.34 5.449h263.047q7.891 0 13.34-5.449t5.449-13.34V43.14q0-7.891-5.449-13.34t-13.34-5.449H199.632q-7.891 0-13.34 5.449t-5.448 13.34zm0 150.314v75.156q0 7.892 5.448 13.34t13.34 5.448h263.047q7.891 0 13.34-5.448t5.449-13.34v-75.156q0-7.891-5.449-13.34t-13.34-5.449H199.632q-7.891 0-13.34 5.449t-5.448 13.34zm0 150.311v75.157q0 7.891 5.448 13.34t13.34 5.449h263.047q7.891 0 13.34-5.449t5.449-13.34v-75.157q0-7.891-5.449-13.34t-13.34-5.449H199.632q-7.891 0-13.34 5.449t-5.448 13.34z"/><glyph unicode="" glyph-name="settings" d="M11.094 222.827q0-14.08 2.56-31.574l64.427-16.214.853-2.56q5.974-20.906 16.213-39.68l1.28-2.134-34.133-57.173q19.2-25.173 44.8-44.8l56.746 34.56 2.133-1.28q19.2-11.094 40.106-16.64l2.133-.853 16.214-64.426q17.066-2.134 31.573-2.134 11.52 0 31.574 2.134l16.214 64.427 2.56.853q19.627 5.546 39.68 16.64l2.134 1.28 57.173-34.56q23.894 18.774 44.373 44.8l-34.133 57.173 1.28 2.134q10.24 18.774 16.64 39.68l.426 2.56 64.853 16.214q2.134 17.067 2.134 31.574 0 11.947-2.134 31.147l-64.853 16.214-.426 2.56q-6.827 21.76-16.64 39.68l-1.28 2.133 34.134 57.173q-18.774 24.747-44.373 44.8l-57.173-34.56-2.134 1.28q-19.2 10.666-39.68 16.64l-2.56.426-16.214 64.854q-17.067 2.133-31.574 2.133-11.52 0-31.573-2.133l-16.214-64.854-2.133-.426q-21.334-5.974-40.106-16.64l-2.133-1.28-56.746 34.56q-25.174-20.053-44.8-44.8l34.133-57.173-1.28-2.133q-10.666-20.053-16.213-39.68l-.853-2.56-64.427-16.214q-2.56-20.48-2.56-31.147zm153.173 0q0 37.547 26.88 64.427T256 314.134t64.853-26.88 26.88-64.427q0-37.974-26.88-64.853T256 131.094t-64.853 26.88-26.88 64.853z"/><glyph unicode="" glyph-name="delete" d="M68.109 370.546v18.79q0 3.758 2.818 6.576t6.576 2.818h103.341v37.578q0 15.408 11.085 26.493t26.493 11.086h112.734q15.408 0 26.493-11.086t11.086-26.493V398.73h103.341q3.758 0 6.576-2.818t2.818-6.576v-18.79q0-4.134-2.63-6.764t-6.764-2.63H77.505q-4.134 0-6.764 2.63t-2.63 6.764zm37.579-347.599v300.625h338.204V22.947q0-15.408-11.086-26.681t-26.493-11.274H143.266q-15.407 0-26.493 11.274t-11.085 26.681zm37.578 0h37.578v263.047h-37.578V22.947zm75.156 0H256v263.047h-37.578V22.947zm0 375.783h112.734v37.578H218.422V398.73zm75.156-375.783h37.578v263.047h-37.578V22.947zm75.157 0h37.578v263.047h-37.578V22.947z"/><glyph unicode="" glyph-name="home" d="M14.906 222.38l246.513 242.004L503.422 222.38h-75.156V-3.089H315.532v150.313H202.798V-3.089H90.064V222.38H14.908z"/><glyph unicode="" glyph-name="re-order" d="M132.827 98.45h81.84v248h-81.84L256 470.45l123.173-124h-81.84v-248h81.84L256-25.55z"/><glyph unicode="" glyph-name="filter" d="M42.666 539.734V582.4h426.666v-42.666H42.666zM64 497.067h384L298.667 283.733v-128l-85.334-85.334v213.333z"/><glyph unicode="" glyph-name="sort" d="M8.827 98.45L132-25.55l123.173 124h-81.84v372H90.666v-372H8.826zm248 248L380 470.45l123.173-124h-81.84v-372h-82.667v372h-81.84z"/><glyph unicode="" glyph-name="edit2" data-tags="mode_edit" d="M442 319.333l-39-39-80 80 39 39c8 8 22 8 30 0l50-50c8-8 8-22 0-30zm-378-218l236 236 80-80-236-236H64v80z"/><glyph unicode="" glyph-name="person_pin" data-tags="person_pin" d="M384 128.333v19c0 43-85 66-128 66s-128-23-128-66v-19h256zm-128 228c-32 0-58-26-58-58s26-57 58-57 58 25 58 57-26 58-58 58zm149 70c23 0 43-19 43-42v-299c0-23-20-43-43-43h-85l-64-64-64 64h-85c-24 0-43 20-43 43v299c0 23 19 42 43 42h298z"/><glyph unicode="" glyph-name="ellipses" data-tags="more_vert" d="M256 128.333c23 0 43-20 43-43s-20-43-43-43-43 20-43 43 20 43 43 43zm0 128c23 0 43-20 43-43s-20-43-43-43-43 20-43 43 20 43 43 43zm0 42c-23 0-43 20-43 43s20 43 43 43 43-20 43-43-20-43-43-43z"/><glyph unicode="" glyph-name="timeline" data-tags="clock, time, schedule" d="M329.372 105.372L224 210.745V352h64V237.255l86.628-86.627zM256 480C114.615 480 0 365.385 0 224S114.615-32 256-32 512 82.615 512 224 397.385 480 256 480zm0-448C149.961 32 64 117.961 64 224s85.961 192 192 192 192-85.961 192-192S362.039 32 256 32z"/><glyph unicode="" glyph-name="image" data-tags="image, picture, photo, graphic" d="M0 416V0h512v416H0zM480 32H32v352h448V32zM352 304c0 26.51 21.49 48 48 48s48-21.49 48-48-21.49-48-48-48-48 21.49-48 48zm96-240H64l96 256 128-160 64 48z"/><glyph unicode="" glyph-name="slideshow" data-tags="images, pictures, photos, graphics" d="M64 352V32h448v320H64zM480 85.333L416 192l-72.533-60.444L288 224 96 64v256h384V85.333zM128 240c0 26.51 21.49 48 48 48s48-21.49 48-48-21.49-48-48-48-48 21.49-48 48zm320 176H0V96h32v288h416z"/><glyph unicode="" glyph-name="video" data-tags="film, video, movie, tape, play" d="M0 416V32h512v384H0zM96 64H32v64h64V64zm0 128H32v64h64v-64zm0 128H32v64h64v-64zM384 64H128v320h256V64zm96 0h-64v64h64V64zm0 128h-64v64h64v-64zm0 128h-64v64h64v-64zm-288 0V128l128 96z"/><glyph unicode="" glyph-name="text" data-tags="file, list, paper, page, document" d="M432 480H48c-26.4 0-48-21.6-48-48V16c0-26.4 21.6-48 48-48h384c26.4 0 48 21.6 48 48v416c0 26.4-21.6 48-48 48zM416 32H64v384h352V32zM128 256h224v-32H128zm0-64h224v-32H128zm0-64h224V96H128zm0 192h224v-32H128z"/><glyph unicode="" glyph-name="narrative" data-tags="profile, page, user, paper, file, document" d="M432 480H48c-26.4 0-48-21.6-48-48V16c0-26.4 21.6-48 48-48h384c26.4 0 48 21.6 48 48v416c0 26.4-21.6 48-48 48zM416 32H64v384h352V32zM128 192h224v-32H128zm0-64h224V96H128zm32 208c0 26.51 21.49 48 48 48s48-21.49 48-48-21.49-48-48-48-48 21.49-48 48zm80-48h-64c-26.4 0-48-14.4-48-32v-32h160v32c0 17.6-21.6 32-48 32z"/><glyph unicode="" glyph-name="comparison" data-tags="copy, duplicate, files, pages, papers, documents" d="M416 352h-96v32l-96 96H0V96h192V-32h320v288l-96 96zm0-45.255L466.745 256H416v50.745zm-192 128L274.745 384H224v50.745zM32 448h160v-96h96V128H32v320zM480 0H224v96h96v224h64v-96h96V0z"/><glyph unicode="" glyph-name="progression" data-tags="stack, layers" d="M512 320L256 448 0 320l256-128 256 128zm-256 85.515L427.029 320 256 234.485 84.971 320 256 405.515zm204.722-155.876L512 224 256 96 0 224l51.278 25.639L256 147.278zm0-96L512 128 256 0 0 128l51.278 25.639L256 51.278z"/><glyph unicode="" glyph-name="folder" data-tags="folder, directory, category, browse" d="M0 320h512L480 0H32L0 320zm464 64l16-32H32l32 64h176l16-32h208z"/><glyph unicode="" glyph-name="tag" data-tags="tag, price" d="M463.906 480H319.625c-26.453 0-63.398-15.303-82.102-34.007L14.028 222.498c-18.704-18.704-18.704-49.312 0-68.016L186.483-17.971c18.704-18.705 49.311-18.705 68.015 0l223.495 223.494C496.697 224.228 512 261.174 512 287.625v144.281C512 458.358 490.357 480 463.906 480zM400 320c-26.51 0-48 21.49-48 48s21.49 48 48 48 48-21.49 48-48-21.49-48-48-48z"/><glyph unicode="" glyph-name="map" data-tags="location, map, marker, pin" d="M256 480c-88.366 0-160-71.634-160-160C96 160 256-32 256-32s160 192 160 352c0 88.366-71.635 160-160 160zm0-256c-53.02 0-96 42.98-96 96s42.98 96 96 96 96-42.98 96-96-42.98-96-96-96z"/><glyph unicode="" glyph-name="fullscreen-open" data-tags="expand, enlarge, maximize, fullscreen" d="M512 480V288l-69.13 69.13-106-106-53.74 53.74 106 106L320 480zm-389.13-69.13l106-106-53.74-53.74-106 106L0 288v192h192zm320-320L512 160V-32H320l69.13 69.13-106 106 53.74 53.74zm-214 52.26l-106-106L192-32H0v192l69.13-69.13 106 106z"/><glyph unicode="" glyph-name="audio" data-tags="volume-medium, speaker, media control, audio" d="M359.765 64.235a23.926 23.926 0 0 0-16.971 7.029c-9.372 9.372-9.372 24.568 0 33.941 65.503 65.503 65.503 172.085 0 237.588-9.372 9.373-9.372 24.569 0 33.941 9.372 9.371 24.569 9.372 33.941 0C417.532 335.938 440 281.696 440 224s-22.468-111.938-63.265-152.735a23.921 23.921 0 0 0-16.97-7.03zM274.51 109.49a23.926 23.926 0 0 0-16.971 7.029c-9.373 9.373-9.373 24.568 0 33.941 40.55 40.55 40.55 106.529 0 147.078-9.373 9.373-9.373 24.569 0 33.941s24.568 9.372 33.941 0c59.265-59.265 59.265-155.696 0-214.961a23.927 23.927 0 0 0-16.97-7.028zm-73.844 331.176C213.5 453.5 224 449.15 224 431V17c0-18.15-10.5-22.499-23.334-9.665L80 128H0v192h80l120.666 120.666z"/><glyph unicode="" glyph-name="fullscreen-close" data-tags="contract, minimize, shrink, collapse" d="M32 192h192V0l-69.13 69.13-101-101L.13 21.87l101 101zm378.87-69.13l101-101-53.74-53.74-101 101L288 0v192h192zM480 256H288v192l69.13-69.13 101 101 53.74-53.74-101-101zM154.87 378.87L224 448V256H32l69.13 69.13-101 101 53.74 53.74z"/><glyph unicode="" glyph-name="organize" data-tags="organize-square" d="M228.269 154.757v161.672h-44.731l74.553 88.185 74.553-88.185h-44.731V154.757h44.731l-74.553-88.185-74.553 88.185h44.731zM105.539 439.43c-32.347 0-58.569-26.231-58.569-58.57V79.939c0-32.347 26.231-58.57 58.569-58.57H406.46c32.347 0 58.57 26.231 58.57 58.57V380.86c0 32.347-26.231 58.57-58.57 58.57H105.539z"/><glyph unicode="" glyph-name="edit" data-tags="edit-square" d="M109.531 433.885h292.938c31.481 0 57.016-25.527 57.016-57.016V83.931c0-31.481-25.527-57.016-57.016-57.016H109.531c-31.481 0-57.016 25.527-57.016 57.016v292.938c0 31.481 25.527 57.016 57.016 57.016zm188.96-104.857L154.993 180.432l55.272-53.375 143.498 148.596-55.272 53.375zm73.35 40.707c-9.241 8.924-23.969 8.666-32.914-.597l-29.171-30.208 55.272-53.374 29.171 30.207c8.937 9.254 8.669 24.01-.553 32.915l-21.805 21.057zM119.181 86.039l79.273 26.785-55.272 53.375-24.001-80.159z"/><glyph unicode="" glyph-name="unordered-list" data-tags="list, bullet, ul, todo, menu" d="M192 448h320v-64H192v64zm0-192h320v-64H192v64zm0-192h320V0H192v64zM0 416c0 35.346 28.654 64 64 64s64-28.654 64-64c0-35.346-28.654-64-64-64S0 380.654 0 416zm0-192c0 35.346 28.654 64 64 64s64-28.654 64-64c0-35.346-28.654-64-64-64S0 188.654 0 224zM0 32c0 35.346 28.654 64 64 64s64-28.654 64-64c0-35.346-28.654-64-64-64S0-3.346 0 32z"/><glyph unicode="" glyph-name="numbered-list" data-tags="numbered-list, list, items, nl" d="M192 64h320V0H192zm0 192h320v-64H192zm0 192h320v-64H192zm-96 32V352H64v96H32v32zM64 217v-25h64v-32H32v73l64 30v25H32v32h96v-73zm64-89V-32H32V0h64v32H32v32h64v32H32v32z"/><glyph unicode="" glyph-name="link" data-tags="Link" d="M272.952 192.973l14.468-14.468c10.692-10.692 10.679-27.966.017-38.627l-123.1-123.1c-10.668-10.668-27.957-10.654-38.627.017L43.675 98.83c-10.692 10.692-10.679 27.966-.017 38.627l123.1 123.1c10.668 10.668 27.957 10.655 38.627-.017l14.468-14.468-24.136-24.136-14.468 14.468c2.65-2.65 6.975-2.653 9.644.017l-123.1-123.1c2.662 2.661 2.662 7 .017 9.644l82.035-82.035c-2.65 2.651-6.975 2.653-9.644-.017l123.1 123.1c-2.661-2.661-2.661-7-.017-9.644l-14.468 14.468 24.136 24.136zm-27.077 79.121l-14.468 14.468c-10.692 10.692-10.679 27.965-.017 38.627l123.1 123.1c10.668 10.668 27.957 10.654 38.627-.017l82.035-82.035c10.692-10.692 10.679-27.965.017-38.627l-123.1-123.1c-10.668-10.668-27.957-10.654-38.627.017l-14.468 14.468 24.136 24.136 14.468-14.468c-2.651 2.65-6.974 2.653-9.644-.017l123.1 123.1c-2.661-2.661-2.661-7-.017-9.644l-82.035 82.035c2.651-2.651 6.974-2.653 9.644.017l-123.1-123.1c2.662 2.662 2.662 7 .017 9.644l14.468-14.468-24.136-24.136zm-63.196-82.505l123.093 123.093c6.665 6.665 17.471 6.665 24.136 0l9.654-9.654c6.665-6.665 6.665-17.471 0-24.136L216.469 155.799c-6.665-6.665-17.471-6.665-24.136 0l-9.655 9.654c-6.665 6.665-6.665 17.471 0 24.136z"/><glyph unicode="" glyph-name="bold" data-tags="bold, wysiwyg" d="M353.94 237.674C372.689 259.945 384 288.678 384 320c0 70.58-57.421 128-128 128H96V0h192c70.579 0 128 57.421 128 128 0 46.478-24.899 87.248-62.06 109.674zM192 384h50.75c27.984 0 50.75-28.71 50.75-64s-22.766-64-50.75-64H192v128zm79.5-320H192v128h79.5c29.225 0 53-28.71 53-64s-23.775-64-53-64z"/><glyph unicode="" glyph-name="italic" data-tags="italic, wysiwyg" d="M448 448v-32h-64L224 32h64V0H64v32h64l160 384h-64v32z"/><glyph unicode="" glyph-name="paragraph-left" data-tags="paragraph-left, align left, left, wysiwyg" d="M0 384h512v-32H0zm0-64h352v-32H0zm0-64h512v-32H0zm0-64h352v-32H0zm0-64h512V96H0zm0-64h352V32H0z"/><glyph unicode="" glyph-name="paragraph-center" data-tags="paragraph-center, align center, center, wysiwyg" d="M0 384h512v-32H0zm96-64h320v-32H96zm0-128h320v-32H96zm0-128h320V32H96zM0 256h512v-32H0zm0-128h512V96H0z"/><glyph unicode="" glyph-name="paragraph-right" data-tags="paragraph-right, align right, right, wysiwyg" d="M0 384h512v-32H0zm160-64h352v-32H160zM0 256h512v-32H0zm160-64h352v-32H160zM0 128h512V96H0zm160-64h352V32H160z"/><glyph unicode="" glyph-name="tools" data-tags="cogs, settings, gears, generate, control, options" d="M181.861 118.974l20.649 28.908-22.627 22.628-28.909-20.648a79.524 79.524 0 0 1-17.133 7.096L128 192H96l-5.84-35.043a79.524 79.524 0 0 1-17.133-7.096L44.118 170.51 21.49 147.882l20.649-28.908a79.524 79.524 0 0 1-7.096-17.133L0 96V64l35.043-5.841a79.545 79.545 0 0 1 7.096-17.133L21.49 12.118 44.117-10.51l28.909 20.648a79.524 79.524 0 0 1 17.133-7.096L96-32h32l5.84 35.043a79.524 79.524 0 0 1 17.133 7.096l28.909-20.648 22.627 22.628-20.649 28.908a79.524 79.524 0 0 1 7.096 17.133L224 64v32l-35.043 5.841a79.545 79.545 0 0 1-7.096 17.133zM112 48c-17.674 0-32 14.327-32 32s14.326 32 32 32 32-14.327 32-32-14.326-32-32-32zm400 240v32l-33.691 6.125a143.589 143.589 0 0 1-2.362 11.895l28.779 18.55-12.246 29.564-33.472-7.234a143.737 143.737 0 0 1-6.746 10.065l19.503 28.171-22.628 22.627-28.171-19.503a144.691 144.691 0 0 1-10.065 6.747l7.234 33.472-29.564 12.247-18.55-28.779a143.589 143.589 0 0 1-11.895 2.362L352 480h-32l-6.126-33.691a143.67 143.67 0 0 1-11.895-2.362l-18.549 28.779-29.564-12.246 7.234-33.472a144.1 144.1 0 0 1-10.065-6.747l-28.171 19.503-22.627-22.627 19.503-28.171a144.1 144.1 0 0 1-6.747-10.065l-33.472 7.234-12.246-29.564 28.779-18.55a143.507 143.507 0 0 1-2.362-11.895L160 320v-32l33.691-6.125a143.589 143.589 0 0 1 2.362-11.895l-28.779-18.55 12.246-29.564 33.472 7.234a144.337 144.337 0 0 1 6.747-10.065l-19.503-28.171 22.627-22.628 28.171 19.503a144.088 144.088 0 0 1 10.065-6.746l-7.234-33.472 29.564-12.246 18.551 28.779a143.483 143.483 0 0 1 11.894-2.362L320 128h32l6.126 33.691c4.022.621 7.988 1.416 11.895 2.362l18.55-28.779 29.564 12.246-7.234 33.472a144.088 144.088 0 0 1 10.065 6.746l28.171-19.503 22.628 22.628-19.503 28.171a144.324 144.324 0 0 1 6.746 10.065l33.472-7.234 12.246 29.565-28.779 18.55a143.507 143.507 0 0 1 2.362 11.895L512 288zm-176-53.6c-38.439 0-69.6 31.161-69.6 69.6s31.16 69.6 69.6 69.6 69.6-31.161 69.6-69.6c0-38.439-31.16-69.6-69.6-69.6z"/><glyph unicode="" glyph-name="h1" data-tags="header" d="M480.572 0Q468 0 442.715 1t-38.143 1Q392 2 366.858 1t-37.714-1q-6.857 0-10.572 5.857t-3.714 13q0 8.857 4.857 13.143t11.143 4.857 14.572 2 12.857 4.286q9.428 6 9.428 40l-.286 111.714q0 6-.286 8.857-3.714 1.143-14.286 1.143H160q-10.857 0-14.571-1.143-.286-2.857-.286-8.857l-.286-106q0-40.572 10.572-46.857 4.572-2.857 13.714-3.714t16.286-1T198.286 33 204 20q0-7.428-3.571-13.714T190.001 0q-13.428 0-39.857 1t-39.572 1Q98.287 2 74 1T37.715 0q-6.572 0-10.143 6T24 18.857q0 8.572 4.428 12.857t10.285 5 13.572 2.143 12 4.286Q73.713 49.715 73.713 84l-.285 16.286v232.286q0 .857.143 7.428t0 10.428-.428 11-1 12-1.857 10.428-3.143 9-4.572 5.143q-4.285 2.857-12.857 3.428t-15.143.572-11.715 4-5.143 12.857q0 7.428 3.428 13.715t10.285 6.285q13.143 0 39.572-1t39.572-1q12 0 36.143 1t36.143 1q7.143 0 10.714-6.285t3.571-13.715q0-8.572-4.857-12.428t-11-4.143-14.143-1.143-12.286-3.714q-10-6-10-45.715l.286-91.428q0-6 .286-9.143 3.714-.857 11.143-.857h199.715q7.143 0 10.857.857.286 3.143.286 9.143l.286 91.428q0 39.715-10 45.715Q352.571 400.571 341 401t-18.857 3.714-7.286 14.143q0 7.428 3.572 13.715t10.714 6.285q12.572 0 37.714-1t37.714-1q12.286 0 36.857 1t36.857 1q7.143 0 10.714-6.285t3.572-13.715q0-8.572-5-12.572t-11.428-4.143-14.714-.857-12.572-3.571q-10-6.572-10-46l.286-269.428q0-34 9.714-40 4.572-2.857 13.143-3.857t15.286-1.286 11.857-4.428 5.143-12.714q0-7.428-3.428-13.714T480.572.001z"/><glyph unicode="" glyph-name="h2" data-tags="header" d="M422.962 56.291q-9.346 0-28.145.743t-28.358.743q-9.346 0-28.039-.743t-28.039-.743q-5.098 0-7.86 4.354t-2.761 9.665q0 6.585 3.611 9.772t8.284 3.611 10.833 1.487 9.558 3.186q7.01 4.461 7.01 29.739l-.212 83.056q0 4.461-.212 6.585-2.761.849-10.62.849H184.63q-8.072 0-10.833-.849-.212-2.124-.212-6.585l-.212-78.808q0-30.163 7.86-34.837 3.399-2.124 10.196-2.761t12.108-.743 9.559-3.186 4.249-9.665q0-5.523-2.655-10.197t-7.753-4.673q-9.984 0-29.632.743t-29.421.743q-9.134 0-27.19-.743t-26.977-.743q-4.886 0-7.541 4.461T83.52 70.31q0 6.373 3.293 9.558t7.647 3.717 10.09 1.594 8.921 3.186q7.01 4.885 7.01 30.375l-.212 12.108v172.696q0 .637.106 5.523t0 7.753-.319 8.178-.743 8.921-1.381 7.753-2.337 6.691-3.399 3.824q-3.186 2.124-9.558 2.549t-11.258.425-8.71 2.974-3.824 9.558q0 5.523 2.549 10.196t7.647 4.673q9.772 0 29.421-.743t29.42-.743q8.922 0 26.871.743t26.871.743q5.31 0 7.966-4.673t2.655-10.196q0-6.373-3.611-9.24t-8.179-3.08-10.515-.85-9.134-2.761q-7.435-4.461-7.435-33.987l.212-67.974q0-4.461.212-6.798 2.761-.637 8.285-.637h148.481q5.31 0 8.072.637.212 2.337.212 6.798l.212 67.974q0 29.526-7.435 33.987-3.824 2.337-12.426 2.656t-14.019 2.761-5.417 10.515q0 5.523 2.656 10.196t7.966 4.673q9.346 0 28.039-.743t28.039-.743q9.134 0 27.402.743t27.402.743q5.31 0 7.966-4.673t2.656-10.196q0-6.373-3.717-9.346t-8.497-3.08-10.94-.637-9.346-2.655q-7.435-4.885-7.435-34.2l.212-200.311q0-25.278 7.222-29.739 3.399-2.124 9.772-2.868t11.364-.955 8.815-3.292 3.824-9.453q0-5.523-2.549-10.197t-7.647-4.673z"/><glyph unicode="" glyph-name="h3" data-tags="header" d="M380.13 98.142q-6.949 0-20.925.553t-21.083.553q-6.949 0-20.846-.553t-20.846-.553q-3.79 0-5.844 3.238t-2.053 7.185q0 4.896 2.685 7.264t6.159 2.685 8.054 1.106 7.106 2.369q5.212 3.317 5.212 22.11l-.158 61.749q0 3.317-.158 4.896-2.053.632-7.896.632h-106.6q-6.001 0-8.054-.632-.158-1.579-.158-4.896l-.158-58.591q0-22.426 5.844-25.899 2.526-1.579 7.581-2.053t9.002-.553 7.107-2.369 3.159-7.185q0-4.106-1.974-7.58t-5.764-3.474q-7.423 0-22.031.553t-21.873.553q-6.791 0-20.215-.553t-20.056-.553q-3.632 0-5.607 3.317t-1.975 7.106q0 4.738 2.447 7.106t5.685 2.764 7.502 1.185 6.633 2.369q5.212 3.632 5.212 22.584l-.158 9.002v128.394q0 .474.079 4.106t0 5.764-.237 6.08-.553 6.634-1.027 5.764-1.738 4.974-2.526 2.844q-2.369 1.579-7.107 1.895t-8.37.316-6.475 2.211-2.844 7.107q0 4.106 1.895 7.58t5.685 3.474q7.264 0 21.873-.553t21.873-.553q6.633 0 19.977.553t19.977.553q3.948 0 5.923-3.474t1.974-7.58q0-4.738-2.684-6.87t-6.081-2.29-7.817-.632-6.791-2.053q-5.528-3.316-5.528-25.268l.158-50.536q0-3.317.158-5.054 2.053-.474 6.159-.474h110.39q3.949 0 6.002.474.158 1.737.158 5.054l.158 50.536q0 21.952-5.527 25.268-2.844 1.737-9.239 1.975t-10.423 2.053-4.027 7.817q0 4.106 1.974 7.58t5.922 3.474q6.949 0 20.846-.553t20.846-.553q6.791 0 20.373.553t20.373.553q3.949 0 5.923-3.474t1.974-7.58q0-4.738-2.764-6.949t-6.317-2.29-8.134-.474-6.949-1.974q-5.527-3.632-5.527-25.425l.158-148.925q0-18.793 5.369-22.11 2.526-1.579 7.264-2.132t8.449-.71 6.555-2.447 2.844-7.029q0-4.106-1.895-7.58t-5.685-3.474z"/><glyph unicode="" glyph-name="unlink" data-tags="unlink" d="M265.743 198.774l24.817-24.817c11.76-11.76 11.746-30.76.019-42.487L155.178-3.931c-11.734-11.734-30.751-11.719-42.487.019L22.458 86.321c-11.761 11.76-11.746 30.76-.018 42.487l135.401 135.401c11.734 11.734 30.75 11.719 42.487-.018l22.94-22.94-26.547-26.547-22.94 22.94c2.916-2.916 7.671-2.918 10.607.018L48.987 102.26c2.928 2.928 2.928 7.7.019 10.608l90.233-90.233c-2.916 2.916-7.671 2.918-10.607-.019l135.402 135.401c-2.928-2.928-2.928-7.7-.019-10.608l-24.817 24.817 26.548 26.548zm-13.744 70.99l-23.049 23.049c-11.761 11.761-11.746 30.76-.018 42.487l135.401 135.401c11.734 11.734 30.75 11.719 42.487-.019l90.233-90.233c11.76-11.76 11.746-30.759.019-42.487L361.671 202.561c-11.734-11.734-30.75-11.719-42.487.019l-24.707 24.707 26.548 26.548 24.707-24.707c-2.916 2.916-7.671 2.918-10.608-.018l135.401 135.402c-2.928-2.928-2.928-7.7-.019-10.608l-90.233 90.233c2.916-2.916 7.671-2.918 10.608.019L255.48 308.754c2.928 2.928 2.928 7.7.018 10.608l23.049-23.05-26.548-26.547zM77.814 447.827l103.537-103.536c5.865-5.865 5.865-15.374 0-21.238s-15.374-5.865-21.238 0L56.576 426.589c-5.865 5.865-5.865 15.374 0 21.238s15.374 5.865 21.238 0zm281.582-296.599L462.932 47.692c5.865-5.865 5.865-15.374 0-21.238s-15.374-5.865-21.238 0L338.158 129.99c-5.865 5.865-5.865 15.374 0 21.238s15.374 5.865 21.238 0zm40.811 37.895l79.783-21.377c8.012-2.147 12.766-10.382 10.62-18.394s-10.382-12.766-18.394-10.62l-79.783 21.377c-8.012 2.147-12.766 10.382-10.62 18.394s10.382 12.766 18.394 10.62zM313.723 15.286L296.55 96.079c-1.724 8.113 3.454 16.087 11.567 17.812s16.087-3.454 17.812-11.567l17.173-80.793c1.724-8.113-3.454-16.087-11.567-17.812s-16.087 3.454-17.812 11.567zM201.089 371.957l-17.173 80.793c-1.725 8.113 3.454 16.087 11.567 17.812s16.088-3.455 17.811-11.567l17.173-80.793c1.725-8.113-3.454-16.087-11.567-17.812s-16.088 3.454-17.811 11.567zM51.046 331.792l79.783-21.378c8.012-2.146 12.766-10.382 10.619-18.393s-10.382-12.766-18.394-10.619l-79.783 21.377c-8.011 2.147-12.766 10.382-10.62 18.394s10.382 12.766 18.394 10.62z"/><glyph unicode="" glyph-name="play" data-tags="play, media control, audio" d="M96 416l320-192L96 32z"/><glyph unicode="" glyph-name="story" data-tags="profile, page, user, paper, file, document" d="M432 480H48c-26.4 0-48-21.6-48-48V16c0-26.4 21.6-48 48-48h384c26.4 0 48 21.6 48 48v416c0 26.4-21.6 48-48 48zM416 32H64v384h352V32zM128 192h224v-32H128zm0-64h224V96H128zm32 208c0 26.51 21.49 48 48 48s48-21.49 48-48-21.49-48-48-48-48 21.49-48 48zm80-48h-64c-26.4 0-48-14.4-48-32v-32h160v32c0 17.6-21.6 32-48 32z"/><glyph unicode="" glyph-name="file" data-tags="file, paper, page, new, empty, blank, document" d="M446.059 385.941l-60.117 60.118C367.273 464.727 330.4 480 304 480H80c-26.4 0-48-21.6-48-48V16c0-26.4 21.6-48 48-48h352c26.4 0 48 21.6 48 48v288c0 26.4-15.273 63.273-33.941 81.941zM320 412.219a86.274 86.274 0 0 0 3.379-1.318c9.03-3.741 15.299-8.088 17.308-10.097l60.118-60.119c2.009-2.009 6.356-8.277 10.097-17.307A86.863 86.863 0 0 0 412.22 320H320v92.219zM416 32H96v384h192V288h128V32z"/><glyph unicode="" glyph-name="quote" data-tags="quotes-right, rdquo" d="M400 160c-61.856 0-112 50.145-112 112s50.144 112 112 112 112-50.144 112-112l.5-16c0-123.712-100.288-224-224-224v64c42.737 0 82.917 16.643 113.137 46.863a162.322 162.322 0 0 1 15.915 18.51c-5.719-.9-11.58-1.373-17.552-1.373zm-288 0C50.145 160 0 210.145 0 272s50.145 112 112 112 112-50.144 112-112l.5-16c0-123.712-100.288-224-224-224v64c42.737 0 82.917 16.643 113.137 46.863a162.23 162.23 0 0 1 15.916 18.51A112.85 112.85 0 0 0 112 160z"/><glyph unicode="" glyph-name="erase" data-tags="eraser" d="M435.149 379.392l-80.743 62.08c-22.323 17.178-54.656 12.954-71.859-9.344L67.507 153.165c-17.177-22.298-12.979-54.579 9.344-71.757l80.717-62.08c22.323-17.178 54.656-12.954 71.859 9.344l215.065 278.963c17.178 22.298 12.979 54.579-9.344 71.757zM218.829 64.845l-13.747-17.433c-3.891-5.043-9.856-7.936-16.358-7.936-3.174 0-7.911.743-12.416 4.199l-80.717 62.08c-4.301 3.303-7.04 8.115-7.757 13.568s.717 10.803 4.019 15.079l13.747 17.433c3.891 5.043 9.856 7.962 16.384 7.962 3.174 0 7.91-.743 12.416-4.199l80.743-62.08c4.301-3.303 7.04-8.115 7.757-13.568.666-5.453-.768-10.803-4.071-15.104z"/><glyph unicode="" glyph-name="mail" data-tags="mail, email, message, letter, envelope, contact" d="M40.806 351.079c12.493-6.733 185.575-99.686 192.025-103.143 6.425-3.456 14.771-5.12 23.168-5.12 8.423 0 16.768 1.664 23.193 5.145 6.451 3.456 179.507 96.409 192 103.143 12.519 6.707 24.346 27.776 1.382 27.776H39.447c-22.963 0-11.162-21.069 1.357-27.801zm435.687-51.2c-14.208-7.424-188.595-98.586-197.299-103.143s-14.771-5.146-23.193-5.146c-8.397 0-14.464.589-23.168 5.146S49.716 292.48 35.534 299.879c-10.009 5.222-9.933-.896-9.933-5.607V106.496c0-10.752 14.31-24.576 25.395-24.576h410.035c11.111 0 25.37 13.824 25.37 24.55v187.776c0 4.736.103 10.855-9.907 5.632z"/><glyph unicode="" glyph-name="undo" data-tags="reply, undo, arrow, left, back, previous" d="M486.4 56.32s-51.2 249.165-275.84 249.165v98.995L25.6 239.232l184.96-171.29v111.565c121.933 0 212.275-10.803 275.84-123.187z"/><glyph unicode="" glyph-name="user" data-tags="user, group, profile, avatar, persona" d="M379.392 116.531c-63.104 22.989-83.277 42.394-83.277 83.942 0 24.935 19.277 16.793 27.725 62.464 3.507 18.944 20.531.307 23.808 43.545 0 17.229-9.293 21.529-9.293 21.529s4.736 25.523 6.579 45.133c2.253 24.474-14.131 87.654-101.734 87.654-87.578 0-104.013-63.181-101.709-87.654 1.843-19.61 6.579-45.133 6.579-45.133s-9.319-4.275-9.319-21.529c3.251-43.238 20.275-24.601 23.782-43.545 8.474-45.671 27.75-37.53 27.75-62.464 0-41.549-20.173-60.954-83.277-83.942C43.672 93.491 2.558 69.964 2.558 53.913V.025h481.28v53.888c0 16.025-41.139 39.552-104.448 62.618z"/><glyph unicode="" glyph-name="users" data-tags="users, group, team, people" d="M512 5.12s-.998 96.947-6.938 106.983c-8.832 14.976-29.337 25.241-67.43 41.165-37.965 15.872-50.125 29.286-50.125 57.933 0 17.229 11.597 11.597 16.691 43.111 2.099 13.081 12.339.231 14.31 30.054 0 11.904-5.581 14.873-5.581 14.873s2.816 17.613 3.942 31.155c1.382 16.896-8.525 60.493-61.235 60.493s-62.567-43.623-61.209-60.493c1.101-13.542 3.917-31.155 3.917-31.155s-5.581-2.969-5.581-14.873c1.971-29.85 12.211-16.998 14.336-30.054 5.069-31.514 16.666-25.882 16.666-43.111 0-19.481-5.632-31.923-21.171-42.855 82.944-41.523 94.08-49.997 94.08-87.117V5.12H512zM261.735 138.88c-50.662 21.145-66.816 39.014-66.816 77.235 0 22.938 15.463 15.463 22.246 57.498 2.791 17.433 16.487.281 19.072 40.064 0 15.872-7.45 19.815-7.45 19.815s3.789 23.475 5.274 41.549c1.843 22.477-11.367 80.64-81.638 80.64s-83.456-58.138-81.613-80.64c1.485-18.074 5.248-41.549 5.248-41.549s-7.424-3.942-7.424-19.815c2.637-39.808 16.282-22.656 19.097-40.064 6.784-42.035 22.246-34.535 22.246-57.498 0-38.221-16.205-56.089-66.816-77.235C27.724 132.429 0 122.419 0 98.406V5.12h355.687v69.913c0 21.939-43.187 42.599-93.952 63.846z"/><glyph unicode="" glyph-name="export" data-tags="export, share, outside" d="M384 81.92H51.2v230.4h66.432s17.639 22.938 55.552 51.2H25.6c-14.131 0-25.6-11.469-25.6-25.6V56.32c0-14.157 11.469-25.6 25.6-25.6h384c14.157 0 25.6 11.443 25.6 25.6v95.897L384 110.105V81.92zm-41.933 177.92v-90.88L512 302.106 342.067 430.08v-80.128C135.68 349.927 135.68 145.92 135.68 145.92c58.419 95.949 94.362 113.92 206.387 113.92z"/><glyph unicode="" glyph-name="comment" data-tags="comment, bubble, chat, talk, discussion, conversation" d="M409.6 409.6H102.4c-28.16 0-51.2-23.04-51.2-51.2V179.2c0-28.16 23.04-51.2 51.2-51.2h102.4l102.4-76.8V128h102.4c28.16 0 51.2 23.04 51.2 51.2v179.2c0 28.16-23.04 51.2-51.2 51.2z"/><glyph unicode="" glyph-name="search" data-tags="search, magnifier, lookup, find" d="M449.152 90.419l-96.743 96.743c14.592 23.987 22.989 52.096 22.989 82.227 0 87.45-75.801 163.251-163.277 163.251-87.45 0-158.362-70.912-158.362-158.361 0-87.475 75.776-163.277 163.251-163.277 29.082 0 56.32 7.885 79.744 21.581l97.255-97.28c9.549-9.523 24.96-9.523 34.457 0l24.141 24.115c9.498 9.523 6.041 21.504-3.456 31.002zm-346.65 183.86c0 60.544 49.075 109.645 109.619 109.645 60.569 0 114.535-53.965 114.535-114.534s-49.075-109.645-109.645-109.645S102.502 213.71 102.502 274.28z"/><glyph unicode="" glyph-name="view" data-tags="eye, views" d="M256 373.76C88.038 373.76 0 250.035 0 230.4S88.038 87.04 256 87.04 512 210.765 512 230.4s-88.038 143.36-256 143.36zm0-253.645c-62.822 0-113.767 49.382-113.767 110.285S193.177 340.685 256 340.685c62.848 0 113.792-49.382 113.792-110.285S318.848 120.115 256 120.115zm0 110.285c-10.393 11.417 16.998 55.117 0 55.117-31.411 0-56.883-24.679-56.883-55.117s25.472-55.143 56.883-55.143c31.437 0 56.909 24.704 56.909 55.143 0 13.977-48.026-9.728-56.909 0z"/><glyph unicode="" glyph-name="appearance" data-tags="brush, painting, art" d="M70.733 139.213C31.975 101.12 64.717 62.004 13.21 4.02c-23.245-26.163 95.693-18.176 154.624 39.757 24.986 24.55 17.946 60.365-8.857 86.733-26.803 26.342-63.257 33.255-88.243 8.704zM500.25 469.555c-19.891 19.533-240.102-156.928-305.664-221.363-32.537-31.975-43.392-49.127-53.376-61.952-4.327-5.581 1.408-7.296 3.968-8.627 12.877-6.553 21.888-12.647 33.561-24.115 11.673-11.443 17.894-20.301 24.55-32.973 1.331-2.534 3.097-8.166 8.755-3.891 13.056 9.805 30.489 20.48 63.001 52.454 65.561 64.435 245.043 280.909 225.203 300.467z"/><glyph unicode="" glyph-name="save" data-tags="checkmark, tick, correct" d="M212.352 51.2a35.607 35.607 0 0 0-28.441 14.157L92.416 186.138c-11.904 15.719-8.806 38.093 6.912 49.997 15.744 11.929 38.093 8.806 49.997-6.912l60.185-79.463 151.347 242.97c10.419 16.717 32.435 21.837 49.178 11.418 16.717-10.394 21.837-32.435 11.392-49.152L242.662 68.02a35.592 35.592 0 0 0-28.697-16.793c-.537-.026-1.075-.026-1.613-.026z"/><glyph unicode="" glyph-name="close" data-tags="cross, cancel, close, remove, delete" d="M367.334 149.709L296.729 230.4l70.605 80.691c12.007 12.007 12.007 31.463 0 43.443s-31.462 11.981-43.443 0L256 276.941l-67.865 77.568c-12.006 12.006-31.463 12.006-43.443 0s-11.981-31.463 0-43.443l70.579-80.666-70.605-80.691c-11.981-12.007-11.981-31.411 0-43.392 12.006-12.007 31.463-12.007 43.443 0L256 183.86l67.865-77.543c12.007-12.007 31.462-12.007 43.443 0s12.007 31.385.026 43.392z"/><glyph unicode="" glyph-name="remove" data-tags="cross, cancel, close, remove, delete" d="M409.6 435.2H102.4c-28.16 0-51.2-23.04-51.2-51.2V76.8c0-28.16 23.04-51.2 51.2-51.2h307.2c28.16 0 51.2 23.04 51.2 51.2V384c0 28.16-23.04 51.2-51.2 51.2zm-75.239-327.399l-78.362 78.336-78.362-78.362-44.237 44.262 78.336 78.362-78.336 78.336 44.237 44.263 78.362-78.336 78.336 78.336 44.262-44.237-78.336-78.362 78.361-78.362L334.36 107.8z"/><glyph unicode="" glyph-name="unpublish" data-tags="minus, subtract, remove, delete" d="M256 445.44c-118.784 0-215.04-96.307-215.04-215.04 0-118.784 96.281-215.04 215.04-215.04s215.04 96.281 215.04 215.04c0 118.758-96.281 215.04-215.04 215.04zm129.28-188.877v-52.352H126.72v52.352h258.56z"/><glyph unicode="" glyph-name="add" data-tags="plus, add, sum" d="M256 445.44c-118.784 0-215.04-96.307-215.04-215.04 0-118.784 96.281-215.04 215.04-215.04s215.04 96.281 215.04 215.04c0 118.758-96.281 215.04-215.04 215.04zm26.163-241.203V101.146h-52.327v103.091H126.719v52.327H229.81v103.117h52.352V256.59h103.091v-52.352H282.162z"/><glyph unicode="" glyph-name="delete-bold" data-tags="cross, cancel, close, remove, delete" d="M256 445.44c-118.784 0-215.04-96.307-215.04-215.04 0-118.784 96.281-215.04 215.04-215.04s215.04 96.281 215.04 215.04c0 118.758-96.281 215.04-215.04 215.04zm44.262-215.04l78.362-78.362-44.262-44.262L256 186.138l-78.362-78.361-44.237 44.262 78.336 78.362-78.336 78.336 44.237 44.262L256 274.663l78.361 78.336 44.262-44.237-78.362-78.362z"/><glyph unicode="" glyph-name="minus" data-tags="minus, remove, delete, substract" d="M389.094 256H122.88c-14.157 0-15.36-11.469-15.36-25.6s1.203-25.6 15.36-25.6h266.214c14.157 0 15.385 11.469 15.385 25.6S403.25 256 389.094 256z"/><glyph unicode="" glyph-name="plus" data-tags="plus, add, sum" d="M389.094 256h-107.52v107.52c0 14.131-11.443 15.36-25.6 15.36-14.131 0-25.6-1.203-25.6-15.36V256H122.879c-14.157 0-15.36-11.469-15.36-25.6s1.203-25.6 15.36-25.6h107.495V97.28c0-14.131 11.469-15.36 25.6-15.36 14.157 0 25.6 1.229 25.6 15.36V204.8h107.52c14.157 0 15.385 11.469 15.385 25.6S403.25 256 389.094 256z"/><glyph unicode="" glyph-name="info" data-tags="info, about" d="M252.851 465.894C122.803 464.153 18.764 357.299 20.506 227.225 22.247 97.228 129.101-6.836 259.149-5.095S493.236 103.5 491.495 233.574C489.78 363.596 382.9 467.635 252.852 465.894zm26.112-78.489c23.936 0 31.002-13.875 31.002-29.773 0-19.84-15.897-38.195-43.008-38.195-22.681 0-33.459 11.418-32.819 30.259 0 15.897 13.312 37.709 44.825 37.709zM217.575 83.2c-16.358 0-28.339 9.933-16.896 53.606l18.765 77.415c3.251 12.416 3.789 17.383 0 17.383-4.889 0-26.137-8.576-38.707-17.024l-8.166 13.389c39.808 33.229 85.581 52.736 105.19 52.736 16.358 0 19.072-19.354 10.906-49.127l-21.504-81.408c-3.789-14.387-2.151-19.353 1.639-19.353 4.889 0 20.992 5.939 36.813 18.381l9.241-12.416c-38.681-38.681-80.896-53.581-97.28-53.581z"/><glyph unicode="" glyph-name="help" data-tags="help, question" d="M252.877 465.894C122.804 464.153 18.765 357.299 20.506 227.225 22.247 97.228 129.101-6.836 259.175-5.095 389.197-3.354 493.262 103.5 491.495 233.574c-1.715 130.022-108.57 234.061-238.618 232.32zm-.692-378.854h-1.305c-20.019.589-34.15 15.36-33.587 35.097.563 19.379 15.027 33.485 34.406 33.485l1.178-.026c20.582-.615 34.56-15.232 33.945-35.533-.563-19.43-14.822-33.024-34.637-33.024zm84.25 167.219c-4.736-6.681-15.079-15.001-28.135-25.165l-14.387-9.933c-7.885-6.144-12.647-11.904-14.413-17.562-1.433-4.505-2.099-5.658-2.227-14.745l-.026-2.329h-54.861l.154 4.659c.666 19.098 1.152 30.31 9.063 39.603 12.416 14.566 39.808 32.205 40.96 32.947 3.917 2.969 7.219 6.323 9.702 9.907 5.76 7.936 8.294 14.208 8.294 20.327 0 8.525-2.534 16.41-7.526 23.424-4.813 6.784-13.952 10.214-27.161 10.214-13.107 0-22.067-4.173-27.443-12.697-5.555-8.781-8.32-17.971-8.32-27.392v-2.355h-56.576l.102 2.457c1.459 34.663 13.824 59.597 36.761 74.163 14.387 9.293 32.307 13.978 53.197 13.978 27.366 0 50.509-6.656 68.685-19.763 18.432-13.287 27.776-33.203 27.776-59.162 0-14.541-4.582-28.185-13.619-40.576z"/><glyph unicode="" glyph-name="return" data-tags="arrow, back, return" d="M409.651 327.68h-276.48V384l-107.52-92.16 107.52-92.16V256h256V148.48h-332.8V76.8h353.28c28.262 0 51.2 22.938 51.2 51.2v148.48c0 28.288-22.963 51.2-51.2 51.2z"/><glyph unicode="" glyph-name="created" data-tags="arrow, right" d="M102.451 153.6h207.386V76.8l122.88 112.64-122.88 112.615v-76.8h-186.88v158.746H51.251v-179.2c0-28.262 22.912-51.2 51.2-51.2z"/><glyph unicode="" glyph-name="modified" data-tags="retweet, loop, arrows" d="M127.488 148.48v133.632H179.2L89.6 384 0 282.112h51.712V128c0-28.262 22.912-51.2 51.2-51.2H332.8l-65.587 71.68H127.488zm332.774 30.208V332.8c0 28.262-22.938 51.2-51.2 51.2H179.199l65.561-71.68h139.75V178.688h-51.712l89.6-101.888 89.6 101.888H460.26z"/><glyph unicode="" glyph-name="back" data-tags="back, arrow, left" d="M123.29 230.4h261.12V107.52h71.68v143.36c0 28.288-22.938 51.2-51.2 51.2h-281.6v51.2l-102.4-87.04 102.4-81.92v46.08z"/><glyph unicode="" glyph-name="connect" data-tags="switch, transfer, arrows" d="M358.4 353.28h-256v51.2L0 317.44l102.4-81.92v46.08h256v71.68zM512 138.24l-102.4 87.04v-51.2h-256V102.4h256V56.32L512 138.24z"/><glyph unicode="" glyph-name="menu" data-tags="list, menu, options, lines" d="M409.6 256H102.4c-14.131 0-25.6-11.469-25.6-25.6s11.469-25.6 25.6-25.6h307.2c14.157 0 25.6 11.469 25.6 25.6S423.757 256 409.6 256zm-307.2 51.2h307.2c14.157 0 25.6 11.469 25.6 25.6s-11.443 25.6-25.6 25.6H102.4c-14.131 0-25.6-11.469-25.6-25.6s11.469-25.6 25.6-25.6zm307.2-153.6H102.4c-14.131 0-25.6-11.443-25.6-25.6s11.469-25.6 25.6-25.6h307.2c14.157 0 25.6 11.443 25.6 25.6s-11.443 25.6-25.6 25.6z"/><glyph unicode="" glyph-name="archive" data-tags="archive, drawer, cabinet, files, category" d="M434.381 358.4c0 25.6-25.472 25.6-25.472 25.6H103.092s-25.472 0-25.472-25.6v-25.6h356.761v25.6zm-76.468 76.8H154.06s-25.472 0-25.472-25.6H383.41c0 25.6-25.498 25.6-25.498 25.6zm127.412-102.4l-15.079 15.155V307.2H41.727v40.755L26.649 332.8C11.571 317.645.768 313.574 6.86 281.575 12.876 249.703 42.137 74.855 46.463 51.2c4.787-25.959 31.155-25.6 31.155-25.6H434.38s26.368-.358 31.155 25.6c4.352 23.654 33.587 198.503 39.629 230.375 6.067 32-4.736 36.07-19.84 51.226zM357.913 194.56s0-25.6-25.498-25.6H179.558c-25.472 0-25.472 25.6-25.472 25.6v51.2h35.686V204.8h132.429v40.96h35.738v-51.2z"/><glyph unicode="" glyph-name="upload" data-tags="upload, load, import" d="M256 435.149L122.88 310.221h84.48V179.149h97.28v131.072h84.505L256 435.149zm239.104-295.476l-81.51 54.835h-50.253l87.04-66.765h-90.752c-2.611 0-4.941-1.331-6.144-3.405l-20.889-57.216h-153.19l-20.915 57.216c-1.152 2.074-3.533 3.405-6.144 3.405H61.62l87.066 66.765H98.407l-81.485-54.835C4.788 132.428-2.457 115.711.794 102.579l14.361-78.695C18.406 10.725 32.845-.052 47.181-.052h417.613c14.387 0 28.8 10.777 32.051 23.936l14.361 78.695c3.302 13.159-3.968 29.849-16.103 37.094z"/><glyph unicode="" glyph-name="download" data-tags="download, archive, store, save" d="M495.104 139.673l-81.51 54.835h-50.253l87.04-66.765h-90.752c-2.611 0-4.941-1.331-6.144-3.405l-20.889-57.216h-153.19l-20.915 57.216c-1.152 2.074-3.533 3.405-6.144 3.405H61.62l87.066 66.765H98.407l-81.485-54.835C4.788 132.428-2.457 115.711.794 102.579l14.361-78.695C18.406 10.725 32.845-.052 47.181-.052h417.613c14.387 0 28.8 10.777 32.051 23.936l14.361 78.695c3.302 13.159-3.968 29.849-16.103 37.094zM389.146 304.077h-84.505v131.072h-97.28V304.077h-84.48l133.12-124.928 133.146 124.928z"/><glyph unicode="" glyph-name="expand" data-tags="resize-enlarge, enlarge, fullscreen" d="M214.707 432.333l-61.542-49.817 77.568-75.008-51.2-51.2-75.059 77.619-50.995-62.899v161.305h161.229zm118.4-227.226l75.034-77.568 50.432 62.233V28.492h-161.28l62.233 50.406-77.594 75.034 51.175 51.175z"/><glyph unicode="" glyph-name="arrow-left" data-tags="arrow-left, previous, left" d="M368.615 40.499c6.861-6.938 6.861-18.125 0-25.063s-17.945-6.938-24.807 0L143.36 217.855c-6.861 6.938-6.861 18.151 0 25.063l200.448 202.445c6.861 6.938 17.945 6.938 24.807 0s6.861-18.125 0-25.063L185.831 230.399 368.615 40.498z"/><glyph unicode="" glyph-name="arrow-down" data-tags="arrow-down, down, bottom" d="M66.099 343.014c-6.938 6.861-18.151 6.861-25.063 0-6.912-6.835-6.912-17.946 0-24.807l202.445-200.448c6.938-6.861 18.125-6.861 25.063 0l202.445 200.448c6.912 6.861 6.938 17.945 0 24.806s-18.176 6.861-25.063.026l-189.927-182.81L66.098 343.013z"/><glyph unicode="" glyph-name="arrow-up" data-tags="arrow-up, up, top" d="M445.901 117.785c6.938-6.861 18.151-6.861 25.063 0a17.385 17.385 0 0 1 0 24.807L268.519 343.04c-6.912 6.861-18.125 6.861-25.037 0L41.037 142.592c-6.912-6.861-6.938-17.945 0-24.807s18.125-6.861 25.063 0l189.901 182.81 189.901-182.81z"/><glyph unicode="" glyph-name="arrow-right" d="M143.352 40.499c-6.861-6.938-6.861-18.125 0-25.063s17.946-6.938 24.806 0l200.448 202.419c6.861 6.938 6.861 18.151 0 25.063L168.158 445.363c-6.861 6.938-17.946 6.938-24.806 0s-6.861-18.125 0-25.063l182.784-189.901L143.352 40.498z"/><glyph unicode="" glyph-name="zoomin" data-tags="zoom in, enlarge, scale" d="M496.131 44.302L374.855 147.449c-12.537 11.283-25.945 16.463-36.776 15.963C366.707 196.946 384 240.451 384 288c0 106.039-85.961 192-192 192S0 394.039 0 288 85.961 96 192 96c47.549 0 91.054 17.293 124.588 45.922-.5-10.831 4.68-24.239 15.963-36.776L435.698-16.13c17.661-19.623 46.511-21.277 64.11-3.678s15.946 46.449-3.677 64.11zM192 160c-70.692 0-128 57.308-128 128s57.308 128 128 128 128-57.308 128-128-57.307-128-128-128zm32 224h-64v-64H96v-64h64v-64h64v64h64v64h-64z"/><glyph unicode="" glyph-name="zoomout" data-tags="zoom out, smaller, scale, reduce" d="M496.131 44.302L374.855 147.449c-12.537 11.283-25.945 16.463-36.776 15.963C366.707 196.946 384 240.451 384 288c0 106.039-85.961 192-192 192S0 394.039 0 288 85.961 96 192 96c47.549 0 91.054 17.293 124.588 45.922-.5-10.831 4.68-24.239 15.963-36.776L435.698-16.13c17.661-19.623 46.511-21.277 64.11-3.678s15.946 46.449-3.677 64.11zM192 160c-70.692 0-128 57.308-128 128s57.308 128 128 128 128-57.308 128-128-57.307-128-128-128zM96 320h192v-64H96z"/><glyph unicode="" glyph-name="duplicate" data-tags="copy" d="M281.6 486.4H76.8c-14.157 0-25.6-11.443-25.6-25.6V153.6c0-14.131 11.443-25.6 25.6-25.6h128V76.8H256V128h-51.174v51.2H256v51.2h-51.2v-51.2H102.4v256H256V332.8h51.2v128c0 14.131-11.443 25.6-25.6 25.6zm-76.8-179.2v-25.6H256v51.2h-25.6c-14.157 0-25.6-11.443-25.6-25.6zM307.2-25.6h51.2v51.2h-51.2v-51.2zm0 307.2h51.2v51.2h-51.2v-51.2zM204.8 0c0-14.131 11.443-25.6 25.6-25.6H256v51.2h-51.2V0zm230.4 332.8h-25.6v-51.2h51.2v25.6c0 14.131-11.443 25.6-25.6 25.6zM409.6-25.6h25.6c14.157 0 25.6 11.469 25.6 25.6v25.6h-51.2v-51.2zm0 204.8h51.2v51.2h-51.2v-51.2zm0-102.4h51.2V128h-51.2V76.8z"/><glyph unicode="" glyph-name="new-window" data-tags="new tab, external, outside, popout, link, blank" d="M96 448V64h384v384H96zM448 96H128v320h320V96zM64 32v320l-32 32V0h384l-32 32zm150.627 105.373l96 96L384 160v192H192l73.373-73.373-96-96z"/><glyph unicode="" glyph-name="asterisk" data-tags="asterisk" horiz-adv-x="476" d="M423.428 175.429q13.143-7.428 17-22.143t-3.572-27.857L418.57 94.001q-7.428-13.143-22.143-17t-27.857 3.572l-76 43.714V36.573q0-14.857-10.857-25.714T255.999.002h-36.572q-14.857 0-25.714 10.857t-10.857 25.714v87.714l-76-43.714q-13.143-7.428-27.857-3.572t-22.143 17l-18.285 31.428q-7.428 13.143-3.572 27.857t17 22.143l76 44-76 44q-13.143 7.428-17 22.143t3.572 27.857l18.285 31.428q7.428 13.143 22.143 17t27.857-3.572l76-43.714v87.714q0 14.857 10.857 25.714t25.714 10.857h36.572q14.857 0 25.714-10.857t10.857-25.714v-87.714l76 43.714q13.143 7.428 27.857 3.572t22.143-17l18.286-31.428q7.428-13.143 3.572-27.857t-17-22.143l-76-44z"/><glyph unicode="" glyph-name="lock" data-tags="lock, secure, private, encrypted" d="M296 256h-8v96c0 52.935-43.065 96-96 96h-64c-52.935 0-96-43.065-96-96v-96h-8c-13.2 0-24-10.8-24-24V-8c0-13.2 10.8-24 24-24h272c13.2 0 24 10.8 24 24v240c0 13.2-10.8 24-24 24zM192 32h-64l13.92 69.6C133.516 107.366 128 117.037 128 128c0 17.673 14.327 32 32 32s32-14.327 32-32c0-10.963-5.516-20.634-13.92-26.4L192 32zm32 224H96v96c0 17.645 14.355 32 32 32h64c17.645 0 32-14.355 32-32v-96z"/><glyph unicode="" glyph-name="unlocked" data-tags="unlocked, lock" d="M384 448h-64c-52.935 0-96-43.065-96-96v-96H24c-13.2 0-24-10.8-24-24V-8c0-13.2 10.8-24 24-24h272c13.2 0 24 10.8 24 24v240c0 13.2-10.8 24-24 24h-8v96c0 17.645 14.355 32 32 32h64c17.645 0 32-14.355 32-32v-96h64v96c0 52.935-43.065 96-96 96zM192 32h-64l13.92 69.6C133.516 107.366 128 117.037 128 128c0 17.673 14.327 32 32 32s32-14.327 32-32c0-10.963-5.516-20.634-13.92-26.4L192 32z"/><glyph unicode="" glyph-name="superscript" data-tags="superscript" horiz-adv-x="440" d="M256.286 84.286V36.572h-70.857l-45.429 72-6.857 12c-1.714 2-2.571 4-3.143 6h-.857c-.571-2-1.715-4-2.572-6-1.715-3.428-4.285-8-7.143-12.572L75.143 36.572H1.428v47.714H38l56.285 83.143-52.857 77.714H2.285v48h78.857L120.857 228c2.572-4 4.572-8.286 6.572-12 1.715-2 2.572-4 3.143-6h.857c.571 2 1.714 4 3.143 6l7.143 12 40 65.143h73.428v-48h-35.714l-52.572-76.285 58.286-84.572h31.143zm182 194v-58.857H291.429l-.857 7.714c-.572 4-1.143 9.428-1.143 13.143 0 78 100 84.572 100 126 0 14.857-13.428 24.857-28.572 24.857-10.857 0-20.572-5.143-27.714-11.143-3.714-3.143-7.143-7.143-10.286-10.857l-30 26.286c5.143 7.143 10.857 13.143 18 18.857 12 9.428 29.428 18.572 53.714 18.572 41.428 0 70.286-24.286 70.286-62.286C434.857 302 340 296.286 336 255.429h66.286v22.857h36z"/><glyph unicode="" glyph-name="updates" data-tags="bell, alarm, notification" d="M512.75 80c0 144-128 112-128 224 0 9.28-.894 17.21-2.524 23.964-8.415 56.509-46.078 101.86-94.886 115.68.433 1.974.66 4.016.66 6.105C288 466.388 273.6 480 256 480s-32-13.612-32-30.25c0-2.09.228-4.132.66-6.105-54.735-15.499-95.457-70.649-96.627-136.721-.02-.96-.033-1.932-.033-2.923C128 192 0 224 0 80 0 41.887 85.295 10.002 199.485 1.96 210.247-18.242 231.513-32 256-32s45.754 13.758 56.515 33.96C426.705 10.002 512 41.887 512 80c0 .114-.013.228-.014.341l.764-.341zm-99.627-27.048c-27.115-7.235-59.079-12.438-93.384-15.324C316.887 70.337 289.448 96 256 96s-60.887-25.663-63.739-58.372c-34.304 2.886-66.269 8.089-93.384 15.324C61.562 62.909 43.722 74.047 37.193 80c6.529 5.953 24.369 17.091 61.684 27.048C142.263 118.624 198.063 125 256 125s113.737-6.376 157.123-17.952c37.315-9.957 55.155-21.095 61.684-27.048-6.529-5.953-24.369-17.091-61.684-27.048z"/><glyph unicode="" glyph-name="wrench" data-tags="wrench, settings, control, tool, options, preferences, fix" d="M501.467 71.062l-230.276 197.38C281.915 288.591 288 311.583 288 336c0 79.529-64.471 144-144 144a143.994 143.994 0 0 1-41.823-6.177l83.195-83.195c12.445-12.445 12.445-32.81 0-45.255l-50.745-50.745c-12.445-12.445-32.81-12.445-45.255 0L6.177 377.823A143.994 143.994 0 0 1 0 336c0-79.529 64.471-144 144-144 24.417 0 47.409 6.085 67.558 16.81l197.38-230.276c11.454-13.362 31.008-14.113 43.452-1.669l50.746 50.746c12.444 12.444 11.693 31.997-1.669 43.451z"/><glyph unicode="" glyph-name="equalizer" data-tags="equalizer, control, options, settings, dashboard" d="M448 256h8c13.2 0 24 10.8 24 24v80c0 13.2-10.8 24-24 24h-8v96h-64v-96h-8c-13.2 0-24-10.8-24-24v-80c0-13.2 10.8-24 24-24h8V-32h64v288zm-64 96h64v-64h-64v64zM296 64c13.2 0 24 10.8 24 24v80c0 13.2-10.8 24-24 24h-8v288h-64V192h-8c-13.2 0-24-10.8-24-24V88c0-13.2 10.8-24 24-24h8v-96h64v96h8zm-72 96h64V96h-64v64zm-88 96c13.2 0 24 10.8 24 24v80c0 13.2-10.8 24-24 24h-8v96H64v-96h-8c-13.2 0-24-10.8-24-24v-80c0-13.2 10.8-24 24-24h8V-32h64v288h8zm-72 96h64v-64H64v64z"/><glyph unicode="" glyph-name="equalizer" data-tags="equalizer, control, options, settings, dashboard" d="M448 256h8c13.2 0 24 10.8 24 24v80c0 13.2-10.8 24-24 24h-8v96h-64v-96h-8c-13.2 0-24-10.8-24-24v-80c0-13.2 10.8-24 24-24h8V-32h64v288zm-64 96h64v-64h-64v64zM296 64c13.2 0 24 10.8 24 24v80c0 13.2-10.8 24-24 24h-8v288h-64V192h-8c-13.2 0-24-10.8-24-24V88c0-13.2 10.8-24 24-24h8v-96h64v96h8zm-72 96h64V96h-64v64zm-88 96c13.2 0 24 10.8 24 24v80c0 13.2-10.8 24-24 24h-8v96H64v-96h-8c-13.2 0-24-10.8-24-24v-80c0-13.2 10.8-24 24-24h8V-32h64v288h8zm-72 96h64v-64H64v64z"/><glyph unicode="person_pin" glyph-name="person_pin" data-tags="person_pin" d="M384 128.333v19c0 43-85 66-128 66s-128-23-128-66v-19h256zm-128 228c-32 0-58-26-58-58s26-57 58-57 58 25 58 57-26 58-58 58zm149 70c23 0 43-19 43-42v-299c0-23-20-43-43-43h-85l-64-64-64 64h-85c-24 0-43 20-43 43v299c0 23 19 42 43 42h298z"/><glyph unicode="more_vert" glyph-name="ellipses" data-tags="more_vert" d="M256 128.333c23 0 43-20 43-43s-20-43-43-43-43 20-43 43 20 43 43 43zm0 128c23 0 43-20 43-43s-20-43-43-43-43 20-43 43 20 43 43 43zm0 42c-23 0-43 20-43 43s20 43 43 43 43-20 43-43-20-43-43-43z"/><glyph unicode="mode_edit" glyph-name="edit2" data-tags="mode_edit" d="M442 319.333l-39-39-80 80 39 39c8 8 22 8 30 0l50-50c8-8 8-22 0-30zm-378-218l236 236 80-80-236-236H64v80z"/><glyph unicode="edit" glyph-name="edit2" data-tags="mode_edit" d="M442 319.333l-39-39-80 80 39 39c8 8 22 8 30 0l50-50c8-8 8-22 0-30zm-378-218l236 236 80-80-236-236H64v80z"/><glyph unicode="create" glyph-name="edit2" data-tags="mode_edit" d="M442 319.333l-39-39-80 80 39 39c8 8 22 8 30 0l50-50c8-8 8-22 0-30zm-378-218l236 236 80-80-236-236H64v80z"/></font>
</defs>
</svg>
